<mxfile host="app.diagrams.net" modified="2023-07-30T15:05:54.767Z" agent="Mozilla/5.0 (Macintosh; Intel Mac OS X 10.15; rv:109.0) Gecko/20100101 Firefox/115.0" version="21.6.5" etag="VrMC8A6ibIerZsoQB1v7" type="github">
  <diagram name="第 1 页" id="R-HRfNLHXX6ldnYs1y9j">
    <mxGraphModel>
      <root>
        <mxCell id="0" />
        <mxCell id="1" parent="0" />
      </root>
    </mxGraphModel>
  </diagram>
</mxfile>
